HIERARCHY
ROOT hip
{
	OFFSET 0.000000 0.000000 0.000000 
	CHANNELS 6 Xposition Yposition Zposition Xrotation Zrotation Yrotation
	JOINT abdomen
	{
		OFFSET 0.000000 3.402643 0.000000 
		CHANNELS 3 Xrotation Zrotation Yrotation
		JOINT chest
		{
			OFFSET 0.000000 8.438565 -0.680529 
			CHANNELS 3 Xrotation Zrotation Yrotation
			JOINT neck
			{
				OFFSET 0.000000 10.207942 -0.272212 
				CHANNELS 3 Xrotation Zrotation Yrotation
				JOINT head
				{
					OFFSET 0.000000 3.130431 0.000000 
					CHANNELS 3 Xrotation Zrotation Yrotation
					End Site
					{
						OFFSET 0.000000 3.130435 0.000000 
					}
				}
			}
			JOINT lCollar
			{
				OFFSET 3.470700 6.669187 -0.816635 
				CHANNELS 3 Yrotation Zrotation Xrotation
				JOINT lShldr
				{
					OFFSET 3.198488 0.000000 0.000000 
					CHANNELS 3 Zrotation Yrotation Xrotation
					JOINT lForeArm
					{
						OFFSET 10.139888 0.000000 0.000000 
						CHANNELS 3 Yrotation Zrotation Xrotation
						JOINT lHand
						{
							OFFSET 8.370511 0.000000 0.000000 
							CHANNELS 3 Zrotation Yrotation Xrotation
							End Site
							{
								OFFSET 4.083176 0.000000 0.000000 
							}
						}
					}
				}
			}
			JOINT rCollar
			{
				OFFSET -3.470700 6.669187 -0.816635 
				CHANNELS 3 Yrotation Zrotation Xrotation
				JOINT rShldr
				{
					OFFSET -3.198488 0.000000 0.000000 
					CHANNELS 3 Zrotation Yrotation Xrotation
					JOINT rForeArm
					{
						OFFSET -10.139888 0.000000 0.000000 
						CHANNELS 3 Yrotation Zrotation Xrotation
						JOINT rHand
						{
							OFFSET -8.370511 0.000000 0.000000 
							CHANNELS 3 Zrotation Yrotation Xrotation
							End Site
							{
								OFFSET -4.083176 0.000000 0.000000 
							}
						}
					}
				}
			}
		}
	}
	JOINT lThigh
	{
		OFFSET 5.308129 -1.633274 1.361059 
		CHANNELS 3 Xrotation Zrotation Yrotation
		JOINT lShin
		{
			OFFSET -2.041588 -20.007561 0.000000 
			CHANNELS 3 Xrotation Zrotation Yrotation
			JOINT lFoot
			{
				OFFSET 0.000000 -19.190928 -1.224953 
				CHANNELS 3 Xrotation Yrotation Zrotation
				End Site
				{
					OFFSET 0.000000 -2.449906 4.627600 
				}
			}
		}
	}
	JOINT rThigh
	{
		OFFSET -5.308129 -1.633274 1.361059 
		CHANNELS 3 Xrotation Zrotation Yrotation
		JOINT rShin
		{
			OFFSET 2.041588 -20.007561 0.000000 
			CHANNELS 3 Xrotation Zrotation Yrotation
			JOINT rFoot
			{
				OFFSET 0.000000 -19.190928 -1.224953 
				CHANNELS 3 Xrotation Yrotation Zrotation
				End Site
				{
					OFFSET 0.000000 -2.449906 4.627600 
				}
			}
		}
	}
}
MOTION
Frames: 18
Frame Time: 0.033333
-2.769612 46.725315 -0.841538 0.697894 12.300035 -31.968479 7.013504 -11.618812 -8.626919 0.000000 0.000000 0.000000 -32.348225 16.691589 -41.263870 0.000000 0.000000 0.000000 0.000000 0.000000 0.000000 -74.225433 -1.118518 49.189648 -67.065010 28.352539 7.235768 11.821581 2.319998 3.763480 0.000000 0.000000 0.000000 46.825699 -39.622150 76.761871 97.327980 0.165738 -6.858871 -13.408607 -28.617231 -54.807545 -9.768304 -4.184737 -12.009690 -1.381832 -11.828180 12.392659 2.310570 11.830448 4.177157 -30.758144 -32.142982 -11.383296 24.608906 -0.605495 -13.911269 9.242639 -6.162790 12.671001 
-5.031313 47.094799 -2.868109 -1.943500 7.557035 -66.953552 8.438374 -8.272996 -5.488239 0.000000 0.000000 0.000000 -22.507557 15.812296 -31.472300 0.000000 0.000000 0.000000 0.000000 0.000000 0.000000 -72.319351 -1.907674 56.734703 -52.078106 22.630583 2.954091 8.667939 1.254513 -1.616161 0.000000 0.000000 0.000000 54.477489 -28.894003 72.782875 73.121788 -2.730415 -3.848071 -8.452813 -17.351223 -49.888466 -6.222931 -3.245702 -8.900108 1.728595 -9.611167 9.204696 0.768424 8.196220 4.496792 -19.365059 -27.069319 -17.889002 20.144747 -1.171935 -4.531909 6.106180 -4.849181 8.964299 
-4.617039 47.408302 -5.141006 -0.718681 0.527685 -105.997330 11.242105 -5.290895 -1.609145 0.000000 0.000000 0.000000 -11.794432 11.941457 -21.111248 0.000000 0.000000 0.000000 0.000000 0.000000 0.000000 -69.138741 -3.232460 65.548767 -38.492020 15.804537 0.931194 4.105541 -0.857615 -7.686468 0.000000 0.000000 0.000000 57.039383 -15.324765 73.613205 51.837849 -5.707401 -1.661483 -2.516282 -6.120749 -44.160336 -2.262037 -3.108717 -4.390304 6.966595 -6.838404 5.862627 -2.373710 3.960635 4.017482 -9.707083 -21.058371 -23.801092 19.661310 -3.772804 4.695129 0.069008 -1.495563 6.953217 
-1.862694 47.385906 -5.622456 4.217979 -5.280588 -138.535553 16.858400 -4.589507 0.695043 0.000000 0.000000 0.000000 -2.655105 5.963893 -13.903990 0.000000 0.000000 0.000000 0.000000 0.000000 0.000000 -61.818218 -5.644105 72.391068 -33.797489 14.538821 0.031423 -0.935907 -2.943165 -7.600485 0.000000 0.000000 0.000000 52.883530 -2.200476 73.473038 45.217724 -11.182508 4.961101 9.344211 6.126775 -34.936234 1.356535 -4.498023 -0.968971 13.610227 -4.032724 3.389244 -5.957903 0.175073 3.486367 -5.879223 -17.274101 -28.453901 26.973724 -11.240364 13.568979 -3.484760 1.909955 11.199328 
0.936440 47.509071 -4.514002 9.298748 -7.385806 -158.899704 21.089499 -4.936981 2.430533 0.000000 0.000000 0.000000 4.215317 -0.363499 -11.611588 0.000000 0.000000 0.000000 0.000000 0.000000 0.000000 -55.479771 -6.652408 73.914108 -35.041588 17.079790 -0.768157 0.652828 -1.652234 -8.218768 0.000000 0.000000 0.000000 49.312073 3.084576 65.579132 45.576874 -21.334581 11.643089 20.699430 14.585817 -24.824108 3.288071 -7.182121 -0.605432 19.384230 -2.033440 3.671659 -9.563602 -2.203776 3.218424 -6.387420 -16.951639 -31.385983 34.333828 -20.045069 17.615662 -6.442484 1.573420 11.755656 
2.582329 47.486679 -2.991272 10.007308 -7.201825 -165.055466 22.306820 -5.291876 3.677102 0.000000 0.000000 0.000000 7.369698 -4.395934 -14.065920 0.000000 0.000000 0.000000 0.000000 0.000000 0.000000 -56.010956 -2.429488 68.083534 -38.228405 19.776312 -0.042699 7.768744 2.714786 -13.951707 0.000000 0.000000 0.000000 56.828804 -0.356760 53.467297 38.688595 -34.367825 6.263503 0.617226 10.432603 -30.464149 2.879735 -7.750901 -2.506236 21.757788 -0.654277 3.550874 -10.715210 -3.835051 2.786982 -8.672673 -20.648293 -30.466496 30.490862 -18.358200 22.220083 -9.527212 -0.608668 9.575202 
3.142157 47.161980 -2.017175 7.559610 -7.560388 -162.796204 20.386833 -6.699088 3.126396 0.000000 0.000000 0.000000 7.723521 -5.103139 -17.238520 0.000000 0.000000 0.000000 0.000000 0.000000 0.000000 -58.860058 1.205226 65.445358 -37.974659 21.051672 1.317970 8.770250 5.149957 -15.932275 0.000000 0.000000 0.000000 69.734230 -4.723276 43.647285 30.996805 -38.356102 2.401343 -18.392366 -2.190821 -34.762409 1.199602 -7.170857 -4.495565 18.522064 -0.938358 2.107379 -7.745317 -5.364626 2.362676 -7.627538 -25.526405 -29.084551 18.673208 -6.561989 24.436106 -6.767391 -0.842176 9.973258 
3.422069 46.781296 -1.087863 4.746684 -8.088875 -158.556854 16.521183 -10.209431 1.884931 0.000000 0.000000 0.000000 9.138381 -3.001209 -19.001785 0.000000 0.000000 0.000000 0.000000 0.000000 0.000000 -55.709717 3.481766 68.108536 -40.210514 18.589109 6.498656 -2.363452 1.675214 -6.838575 0.000000 0.000000 0.000000 77.565285 -9.445310 44.210854 28.835646 -27.713797 1.078841 -16.017433 0.237285 -30.225916 0.848769 -6.861561 -7.435519 15.060966 -1.797681 0.564929 -6.160618 -6.027087 1.749167 -4.436906 -28.490496 -35.089760 10.832958 1.069822 22.203501 5.933164 6.508245 12.543542 
3.422069 46.982834 -1.390170 4.216157 -7.915613 -158.052032 13.875556 -11.792706 3.681034 0.000000 0.000000 0.000000 10.884858 -2.287035 -19.870159 0.000000 0.000000 0.000000 0.000000 0.000000 0.000000 -50.486725 2.206093 74.630173 -43.202194 18.298445 3.800140 -4.357144 2.604945 -10.962790 0.000000 0.000000 0.000000 73.150787 -10.575354 54.160294 28.751795 -18.445845 -6.444930 -8.555465 -0.153068 -25.571875 0.964304 -4.592203 -5.521165 13.467204 -2.489736 -0.820794 -5.362315 -7.284765 1.217954 -1.572953 -28.876595 -43.696976 7.974972 3.518878 27.112057 9.132074 8.637448 11.398302 
3.646001 46.926849 -1.770849 4.912229 -7.559436 -157.845520 14.586014 -11.614082 3.119823 0.000000 0.000000 0.000000 11.599954 -1.951374 -19.523556 0.000000 0.000000 0.000000 0.000000 0.000000 0.000000 -47.305717 0.908830 73.982864 -47.359367 16.733042 14.720110 7.851847 7.748904 -23.845579 0.000000 0.000000 0.000000 53.850948 -2.218787 72.775284 44.828114 -15.796205 6.553259 12.585104 10.800686 -35.300762 1.879978 -3.001218 -3.723186 13.306124 -3.027303 -2.753719 -5.507306 -7.781518 0.812062 -0.302967 -27.724920 -44.037586 8.151112 3.019018 26.944239 8.389527 8.709911 11.481369 
3.634804 46.848476 -2.453838 8.948185 -8.254926 -159.258759 19.334505 -10.558478 2.244800 0.000000 0.000000 0.000000 14.407578 -3.174478 -18.124838 0.000000 0.000000 0.000000 0.000000 0.000000 0.000000 -40.419037 -6.180094 80.893639 -50.960266 16.660610 12.662823 0.683129 0.026982 -24.063745 0.000000 0.000000 0.000000 43.106705 4.117645 78.677711 54.221165 -18.570124 3.772897 29.520952 15.993403 -27.906925 5.985603 -2.265573 -3.207023 14.298148 -2.548466 -2.962131 -6.514143 -7.098749 0.269248 1.511983 -26.698212 -40.949345 11.266263 0.765010 27.138245 5.609746 6.992125 12.158596 
3.041388 45.907967 -3.036057 12.831155 -9.676432 -160.175293 24.780083 -9.862934 0.484825 0.000000 0.000000 0.000000 25.127871 -7.573948 -20.056595 0.000000 0.000000 0.000000 0.000000 0.000000 0.000000 -30.191078 -9.609463 84.413643 -60.783737 25.314503 14.639845 -0.165719 -6.282026 -13.654511 0.000000 0.000000 0.000000 26.055283 5.793016 52.140602 71.446350 -28.341780 22.915007 42.936237 22.902840 -13.300178 7.803648 -3.502306 -2.829919 22.362757 -1.104068 -3.684781 -12.053338 -6.203644 0.607418 0.818000 -27.575481 -36.637051 18.974684 -4.795353 26.790817 -0.314622 4.475469 14.041973 
2.571132 44.541988 -3.920584 11.418871 -9.501345 -160.335724 25.482557 -10.214701 0.306595 0.000000 0.000000 0.000000 35.675926 -8.267831 -24.629269 0.000000 0.000000 0.000000 0.000000 0.000000 0.000000 -24.569971 -6.351280 77.594017 -69.476021 33.266533 8.530771 1.086815 -3.289446 -12.639546 0.000000 0.000000 0.000000 27.349249 3.554650 35.385281 68.756989 -67.780731 18.665653 -11.496084 0.225683 -41.421112 2.753120 -5.946066 0.111696 32.536980 3.157839 -4.561188 -18.555965 -5.543143 0.187475 -5.040131 -27.312658 -38.983105 26.096123 -14.326798 28.224209 -13.549922 1.150356 14.109830 
2.929422 44.340450 -3.976567 10.367433 -8.614082 -162.946915 22.675261 -9.156094 1.721072 0.000000 0.000000 0.000000 29.869299 -7.213920 -21.812733 0.000000 0.000000 0.000000 0.000000 0.000000 0.000000 -29.731152 -4.311770 76.855530 -62.396824 30.624861 4.500021 1.859637 -3.460192 -13.020442 0.000000 0.000000 0.000000 33.859364 1.634875 38.402611 55.696815 -60.592983 12.030139 -10.058063 1.190406 -41.908768 2.869596 -4.958836 0.869342 28.773621 2.298851 -3.498570 -16.218781 -5.077409 -0.615483 -3.567308 -25.297911 -34.571980 23.060097 -11.134790 24.894938 -11.846280 1.846971 12.784689 
3.769162 44.407635 -3.920584 7.554099 -6.685330 -167.895493 17.223509 -7.402302 4.184939 0.000000 0.000000 0.000000 19.496834 -4.235008 -17.246202 0.000000 0.000000 0.000000 0.000000 0.000000 0.000000 -37.890347 -0.118944 74.848816 -53.713852 26.088223 0.941106 2.788952 -4.012147 -16.235363 0.000000 0.000000 0.000000 44.603882 -4.665125 43.660442 43.464558 -47.344936 12.204707 -7.207398 3.446375 -42.802647 2.654128 -3.034375 3.550717 21.168951 1.119701 -1.823058 -11.224498 -4.278399 -2.101143 -2.687243 -22.144672 -26.398277 18.696587 -5.549989 18.257797 -9.531488 2.382454 9.800912 
5.000780 44.474812 -3.763832 -177.192139 -174.909378 6.843116 9.485940 -5.814503 6.301453 0.000000 0.000000 0.000000 7.551548 0.524771 -12.305147 0.000000 0.000000 0.000000 0.000000 0.000000 0.000000 -45.139072 5.890895 71.287460 -50.573555 21.921280 1.602383 3.857787 -4.970672 -26.835171 0.000000 0.000000 0.000000 54.561886 -17.257290 49.190140 36.721073 -33.193329 20.047253 -2.984216 7.129947 -45.021141 1.502942 -1.053769 6.631782 12.142370 0.448012 0.620186 -5.524001 -3.879086 -4.911252 -3.037532 -18.915644 -17.835468 14.637343 0.611610 8.481881 -7.585504 1.576153 5.925193 
6.377952 44.765923 -3.450330 177.706787 -174.911804 3.499422 1.400557 -5.803923 5.447358 0.000000 0.000000 0.000000 -2.988797 5.443125 -7.377150 0.000000 0.000000 0.000000 0.000000 0.000000 0.000000 -49.510181 11.861027 68.068077 -55.991985 21.163319 5.008712 5.461577 -6.799067 -50.477551 0.000000 0.000000 0.000000 62.155952 -34.275215 51.342056 31.183508 -21.251059 28.417366 -1.015492 10.426030 -48.233837 -0.942798 0.056311 7.796688 5.378664 0.682393 4.552789 -0.906315 -5.320927 -8.082497 -4.247939 -16.743732 -10.768295 11.041073 5.408490 0.143047 -6.168015 -2.708279 1.329628 
7.531197 45.280956 -2.935290 174.720627 -173.500854 3.842420 -2.475987 -7.392445 0.343982 0.000000 0.000000 0.000000 -11.262046 8.960637 -1.769296 0.000000 0.000000 0.000000 0.000000 0.000000 0.000000 -55.250099 12.093307 67.060081 -66.026779 25.264568 6.524499 10.801829 -8.078613 -77.341133 0.000000 0.000000 0.000000 72.263794 -45.050251 46.729385 19.638594 -12.671596 27.828360 -8.633403 7.802794 -53.717300 -5.987776 0.320105 7.286294 7.672018 -0.859104 5.785824 0.246522 -3.294335 -9.122597 -4.236887 -15.978241 -4.880589 8.719133 8.015996 -4.820960 -6.592011 -10.435591 -2.516270 
